# xmcd
#
# Track frame offsets:
#	182
#	15100
#	30200
#	44015
#	59220
#	74587
#	89995
#	105395
#	118652
#	134720
#
# Disc length: 1991 seconds
#
# Revision: 4284088119
# Processed by: cddbd v1.5.2PL0 Copyright (c) Steve Scherf et al.
# Submitted via: EZCDAudioConverter 8.5.0.1
#
DISCID=9107c50a
DTITLE=Tracy Lawrence - Time Marches On
DYEAR=1996
DGENRE=Country
TTITLE0=Is That A Tear
TTITLE1=If You Loved Me
TTITLE2=Time Marches On
TTITLE3=Speed Of A Fool
TTITLE4=I Know That Hurt By Heart
TTITLE5=Somewhere Between The Moon And You
TTITLE6=Different Man
TTITLE7=Excitable Boy
TTITLE8=Stars Over Texas
TTITLE9=From What We Give
EXTD=
EXTT0=
EXTT1=
EXTT2=
EXTT3=
EXTT4=
EXTT5=
EXTT6=
EXTT7=
EXTT8=
EXTT9=
PLAYORDER=
